<?xml version="1.0" encoding="UTF-8"?>
<svg id="Layer_1" xmlns="http://www.w3.org/2000/svg" version="1.1" viewBox="0 0 256 256">
  <!-- Generator: Adobe Illustrator 29.5.0, SVG Export Plug-In . SVG Version: 2.1.0 Build 137)  -->
  <defs>
    <style>
      .st0 {
        stroke-miterlimit: 10;
      }

      .st0, .st1, .st2 {
        stroke: #231f20;
        stroke-width: 10px;
      }

      .st0, .st3 {
        fill: #fff;
      }

      .st1 {
        fill: #bcbec0;
      }

      .st1, .st2 {
        stroke-linecap: round;
        stroke-linejoin: round;
      }

      .st4 {
        fill: #231f20;
      }

      .st2 {
        fill: #808285;
      }

      .st5 {
        fill: #e6e7e8;
      }
    </style>
  </defs>
  <path class="st2" d="M219.5,40.42l-17.48-7.31v117.8l31.7-76.45c5.35-13.31-.78-28.57-14.22-34.05Z"/>
  <g>
    <path class="st5" d="M108.59,247c-8.43-.26-15.9-5.47-19.04-13.3L24.82,77.75c-4.37-10.69.78-22.99,11.5-27.38L132.24,10.62c3.06-1.09,5.76-1.62,8.24-1.62,8.46.04,15.9,5.19,18.95,13.1l65.22,155.88c.97,2.87,1.48,6,1.38,8.6-.22,8.23-5.43,15.81-12.96,18.92l-96.15,39.79c-2.67,1.13-5.46,1.7-8.33,1.71Z"/>
    <path class="st4" d="M140.46,14c6.4.04,12.01,3.93,14.31,9.9l.05.14.06.13,65.1,155.58c.75,2.27,1.14,4.67,1.06,6.64v.06s0,.06,0,.06c-.17,6.23-4.13,12.01-9.87,14.38l-96.15,39.79h-.04s-.04.03-.04.03c-1.99.84-4.1,1.28-6.27,1.3-6.41-.23-12.08-4.21-14.47-10.16l-.02-.05-.02-.05L29.45,75.86c-3.32-8.16.6-17.52,8.8-20.87L134.03,15.29c2.42-.85,4.58-1.29,6.42-1.29M140.48,4c-3.39,0-6.78.78-10.05,1.96L34.42,45.75c-13.29,5.44-19.66,20.63-14.22,33.92l64.71,155.9c3.89,9.69,13.17,16.15,23.61,16.44,3.39,0,6.91-.65,10.31-2.09l96.15-39.79c9.78-4.04,15.79-13.7,16.05-23.35.13-3.39-.52-7.18-1.7-10.57L164.1,20.31c-3.76-9.78-13.13-16.25-23.61-16.31h0Z"/>
  </g>
  <path class="st1" d="M201.62,40.54c0-14.41-11.68-26.09-26.09-26.09h-18.92l45.01,108.8V40.54Z"/>
  <path class="st0" d="M184.57,159.08c-1.14-6.19-2.5-10.63-4.1-16.52-.53-1.93-.81-3.72-1.19-5.22,1.27-1.13,2.11-2.52,1.58-4.26s-5.86-9.46-7.28-11.7c-6.35-10-13.2-20.37-19.26-30.47-1.43-2.37-2.47-4.26-3.49-5.54-1.16-2.18-2.99-2.53-7.37-1.13-9.85,3.16-18.61,4.69-28.63,6.73-1.01.2-2.48.52-3.94.82-3.07.64-5.88,1.23-8.86,1.78-10.13,1.89-15.45,1.44-19.21-8.3-.91-10.4,3.67-13.15,13.6-15.9,2.92-.81,5.72-1.52,8.74-2.29,1.44-.37,2.9-.74,3.9-.99,7.07-1.81,14.17-3.79,21.3-5.33,2.9-.62,9.81-1.27,11.82-2.76,3.11-2.31.49-9.19-.41-12.76-1.78-7.08-.76-10.91-8.07-9.36-10.12,2.48-20.25,4.86-30.34,7.44-1.65.42-2.76.7-3.82.98-3.44.87-6.61,1.68-9.13,2.38-22.9,6.35-35.61,14.63-27.96,43.3,4.38,22.29,14.24,28.61,29.11,28.38-3.26,2.07-6.53,4.11-9.81,6.02-5.78,3.39-6.93,4.49-2.39,11.12,2.33,3.4,4.13,6.59,6.31,9.94,1.33,2.03,2.6,4,4.94,3.35,1.57-.44,9.46-5.92,11.55-7.25,3.34-2.12,7.06-4.87,10.38-6.78,1.78-1.02,3.14-1.79,4.92,0,.99,1,4.09,6.09,6.49,10.11-7.19,1.71-14.44,3.44-21.54,4.9-7.58,1.56-9.84.61-7.48,9.96,1.01,3.97,1.7,7.64,2.61,11.51.56,2.41,1.14,4.6,3.6,4.68,2.02.07,11.87-2.65,14.66-3.29,2.87-.66,9.86-2.78,12.32-2.5,1.37.47,1.67,1.94,2.04,3.41,4.64,17.95,14.08,37.51,33.13,35.62,23.96-2.37,25.33-28.15,21.28-50.11h.03ZM138.25,118.08c4.4-3.03,6.41-1.73,9.28,3.14,3.19,5.42,6.57,10.51,9.83,15.84-3.52.83-7.04,1.65-10.56,2.47-2.57-3.95-5.18-7.98-7.79-11.87-2.66-3.96-4.93-6.71-.76-9.59ZM161.65,185.64c-7.15,1.65-10.96-11.5-12.71-20.65l15.48-3.59c2.31,10.12,3.78,22.73-2.78,24.24Z"/>
  <g>
    <path class="st3" d="M160.78,211.82c-15.24,0-26.67-13.01-33.04-37.62l-.08-.3c-.1-.39-.24-.93-.37-1.25-2.26.17-7.71,1.52-10.82,2.39-3.01.8-12.9,3.4-15.27,3.4h-.17c-4.38-.17-5.35-4.19-5.93-6.6-.39-1.66-.74-3.27-1.09-4.88-.46-2.14-.94-4.35-1.51-6.6-1.09-4.33-1.46-7.25-.07-9.4,1.38-2.15,3.85-2.59,6.98-3.16.75-.14,1.58-.29,2.49-.47,7-1.44,14.25-3.17,21.27-4.84,3.27-.78,6.53-1.56,9.77-2.31l2.18-.5c12.03-2.78,24.47-5.66,36.7-8.62,1.19-.29,2.22-.42,3.15-.42,5.49,0,6.45,4.57,7.22,8.25.21.97.42,1.98.7,3.02.27.99.54,1.94.79,2.87,1.28,4.62,2.39,8.6,3.36,13.86,2.48,13.45,3.63,31.87-4.94,43.26-4.29,5.71-10.54,9-18.56,9.79-.93.09-1.85.14-2.76.14h0ZM151.87,166.87c2.62,12.04,6.09,16.41,8.56,16.41h0c.21,0,.42-.03.65-.08,2.49-.58,4.08-5.85,1.43-18.79l-10.64,2.46Z"/>
    <path class="st4" d="M174.96,133.14c4.39,0,4.09,4.23,5.51,9.43,1.61,5.89,2.96,10.33,4.1,16.52,4.04,21.96,2.68,47.74-21.28,50.11-.86.08-1.7.13-2.51.13-17.38,0-26.18-18.61-30.62-35.75-.38-1.47-.67-2.94-2.04-3.41-.12-.01-.26-.02-.42-.02-3,0-11.91,2.51-11.91,2.51,0,0-12.37,3.3-14.59,3.3-.03,0-.05,0-.07,0-2.45-.1-3.01-2.27-3.6-4.68-.92-3.89-1.6-7.55-2.61-11.51-2.37-9.36-.1-8.41,7.48-9.96,10.27-2.11,20.84-4.79,31.09-7.17,12.99-3,25.94-5.99,38.9-9.12,1-.24,1.85-.35,2.57-.35M160.43,185.78c.39,0,.8-.05,1.21-.14,6.56-1.52,5.08-14.12,2.78-24.24l-15.48,3.59c1.66,8.63,5.12,20.79,11.49,20.79M174.96,128.14c-1.14,0-2.36.16-3.74.49-12.27,2.97-24.77,5.86-36.85,8.65l-2,.46c-3.23.75-6.49,1.53-9.76,2.31-7,1.67-14.24,3.4-21.21,4.83-.89.18-1.7.33-2.43.46-3.43.62-6.67,1.2-8.64,4.26-2.07,3.21-1.3,7.21-.25,11.36.57,2.22,1.02,4.31,1.5,6.53.34,1.59.7,3.23,1.1,4.91.6,2.5,2,8.28,8.27,8.53.09,0,.17,0,.27,0,2.38,0,9.95-1.89,15.88-3.47h.03s.03-.02.03-.02c2.75-.77,6.08-1.58,8.33-2.01,8.48,32.11,23.86,38.88,35.3,38.88.99,0,2-.05,3.01-.15,8.74-.86,15.58-4.49,20.31-10.78,9.11-12.11,7.97-31.27,5.4-45.21-.98-5.35-2.1-9.39-3.4-14.05-.26-.93-.52-1.88-.8-2.88-.26-.96-.47-1.94-.67-2.88-.75-3.58-2.16-10.23-9.67-10.23h0ZM154.88,168.74l5.67-1.31c1.8,10.31.18,13-.07,13.34-.02,0-.03,0-.04,0-.67-.19-3.25-2.81-5.56-12.04h0Z"/>
  </g>
  <g>
    <path class="st3" d="M132.37,158.04c-3.47,0-5.2-2.89-7.39-6.56l-.5-.84c-.28-.46-.7-1.17-1.22-2.04-1.78-3.01-6.52-11-7.58-12.09-.3-.3-.45-.35-.45-.35-.21.02-.99.47-1.46.74-1.96,1.12-4.14,2.6-6.24,4.03-1.34.91-2.72,1.85-4.04,2.69-.51.33-1.38.91-2.41,1.6-5.7,3.82-8.47,5.59-9.81,5.96-.51.14-1.04.22-1.55.22-3.15,0-4.81-2.55-6.15-4.6-.92-1.42-1.77-2.8-2.62-4.17-1.2-1.95-2.33-3.79-3.66-5.73-2.33-3.41-3.66-6.03-3.09-8.56.63-2.8,3.25-4.34,6.28-6.12,4.95-2.89,9.98-6.13,14.84-9.25,1.99-1.28,3.97-2.55,5.94-3.8l2.46-1.56h0s25.4-16.12,25.4-16.12c4.16-2.64,8.08-5.13,12.09-7.88,2.68-1.84,4.6-2.63,6.41-2.63,3.68,0,5.48,3.03,7.96,7.22l.85,1.43c4.24,7.06,8.93,14.35,13.46,21.4,1.95,3.02,3.88,6.03,5.77,9.01.33.52.88,1.35,1.54,2.34,3.73,5.62,5.59,8.55,6.02,9.97,1.58,5.13-3.71,8.06-6.25,9.47-.36.2-.69.38-.97.55-.5.3-1.31.85-2.17,1.42-3.97,2.68-6.72,4.44-8.71,4.56-.09,0-.18,0-.28,0-3.94,0-6.67-4.83-8.66-8.35-.28-.49-.53-.94-.75-1.3-1.4-2.3-2.83-4.56-4.26-6.82-1.92-3.04-3.9-6.18-5.81-9.4-1.41-2.38-2.43-3.54-3.14-3.54-.32,0-1.07.15-2.57,1.19-1.66,1.14-1.87,1.29.94,5.42l.48.71c2.01,2.99,4.03,6.1,5.99,9.1l2.22,3.41c1.2,1.84,2.5,4.25,1.95,6.63-.57,2.48-2.72,3.76-5.21,5.25l-.47.28c-2.72,1.63-4.98,3.11-7.95,5.11-2.06,1.38-3.67,2-5.23,2Z"/>
    <path class="st4" d="M147.62,83.47c2.53,0,3.88,2.79,6.67,7.44,6.06,10.1,12.91,20.47,19.26,30.47,1.42,2.23,6.75,9.96,7.28,11.7,1.14,3.69-3.88,5.79-6.12,7.14-2.11,1.27-7.76,5.51-9.74,5.63-.04,0-.09,0-.13,0-2.93,0-5.77-5.96-7.27-8.45-3.32-5.46-6.77-10.66-10.05-16.2-1.84-3.11-3.31-4.77-5.29-4.77-1.12,0-2.4.53-3.99,1.63-4.17,2.87-1.9,5.63.76,9.59,2.75,4.09,5.49,8.35,8.19,12.48,3.37,5.17,1.27,6.14-2.92,8.65-2.89,1.73-5.27,3.3-8.06,5.18-1.61,1.08-2.83,1.57-3.84,1.57-2.23,0-3.47-2.39-5.75-6.18-1.57-2.6-7.69-13.14-9.17-14.61-.78-.78-1.48-1.07-2.17-1.07-.89,0-1.75.49-2.75,1.06-3.31,1.9-7.04,4.65-10.38,6.78-2.09,1.33-9.98,6.82-11.55,7.25-.31.09-.6.13-.88.13-1.79,0-2.91-1.71-4.06-3.47-2.19-3.36-3.98-6.54-6.31-9.94-4.53-6.63-3.39-7.72,2.39-11.12,6.99-4.09,13.98-8.75,20.85-13.09v.02s27.39-17.39,27.39-17.39c4.29-2.72,8.44-5.35,12.65-8.23,2.18-1.5,3.73-2.19,5-2.19M147.62,78.47c-2.36,0-4.7.92-7.83,3.07-3.96,2.72-7.87,5.2-12,7.82l-.49.31-23.99,15.24-3.39,2.14c-1.97,1.25-3.95,2.52-5.94,3.8-4.84,3.11-9.85,6.33-14.76,9.2-3.25,1.91-6.6,3.87-7.46,7.74-.85,3.79,1.25,7.27,3.47,10.52,1.3,1.9,2.41,3.71,3.6,5.63.84,1.36,1.71,2.77,2.65,4.21,1.41,2.16,3.75,5.75,8.25,5.75.74,0,1.49-.11,2.23-.31,1.56-.43,3.63-1.66,10.53-6.29,1.01-.68,1.85-1.24,2.35-1.56,1.35-.86,2.75-1.81,4.1-2.73,1.93-1.31,3.91-2.65,5.69-3.7,1.75,2.6,5.21,8.43,6.48,10.58.52.88.95,1.6,1.23,2.06l.49.82c2.28,3.82,4.65,7.78,9.54,7.78,2.7,0,5.08-1.38,6.63-2.42,2.95-1.99,5.18-3.45,7.84-5.04l.46-.28c2.73-1.63,5.55-3.31,6.36-6.83.77-3.31-.82-6.31-2.29-8.56-.73-1.12-1.47-2.25-2.21-3.38-1.97-3.02-4-6.15-6.03-9.16l-.49-.72c-.45-.66-1-1.47-1.37-2.1.22-.15.41-.26.57-.35.29.36.73.99,1.36,2.06,1.92,3.25,3.92,6.41,5.85,9.47,1.4,2.22,2.85,4.51,4.24,6.79.2.34.44.76.71,1.23,2.3,4.06,5.44,9.62,10.84,9.62.15,0,.29,0,.44-.01,2.62-.15,5.51-1.98,9.95-4.98.83-.56,1.61-1.09,2.05-1.35.27-.16.57-.33.9-.51,2.63-1.46,9.61-5.33,7.43-12.39-.53-1.74-2.3-4.55-6.34-10.62-.64-.97-1.18-1.78-1.51-2.29-1.89-2.98-3.83-5.99-5.78-9.02-4.52-7.03-9.2-14.31-13.42-21.34-.3-.49-.58-.97-.84-1.42-2.57-4.35-5-8.45-10.11-8.45h0Z"/>
  </g>
  <g>
    <path class="st3" d="M90.83,120.86c-17.25,0-26.45-8.93-30.69-29.84l-.11-.4c-7.92-29.68,4.89-39.47,29.7-46.35,2.61-.72,5.96-1.58,9.19-2.39l3.81-.98c6.83-1.75,13.8-3.43,20.53-5.06,3.28-.79,6.55-1.58,9.82-2.38,1.33-.28,2.4-.41,3.33-.41,5.43,0,6.26,4.29,7,8.07.2,1.05.44,2.25.76,3.52.13.51.29,1.09.47,1.72,1.21,4.25,3.03,10.67-1,13.65-1.81,1.34-5.19,1.95-9.78,2.68-1.17.18-2.27.36-3,.52-5.25,1.13-10.59,2.53-15.75,3.88-1.82.48-3.64.95-5.46,1.42l-4.53,1.15c-2.76.7-5.37,1.37-8.06,2.11-9.5,2.64-12.43,4.79-11.8,12.92,2.41,6.06,5.21,7.26,9.19,7.26,1.78,0,3.97-.26,7.09-.85,2.73-.51,5.35-1.06,8.12-1.63l4.62-.96c1.66-.34,3.26-.66,4.84-.98,7.94-1.59,15.44-3.09,23.54-5.69,2.04-.65,3.59-.96,4.89-.96,5.17,0,6.16,4.3,7.43,9.75l.24,1.03c.07.32.18.74.31,1.24,2,7.88,2.69,12.58.61,14.86-1.23,1.33-3.81,1.96-9.53,2.94-.89.15-1.64.28-2.1.38-8.99,2-16.56,3.66-24.31,5.26l-4.9,1.01c-3.04.64-5.92,1.24-8.27,1.67-6.64,1.24-11.8,1.81-16.23,1.81Z"/>
    <path class="st4" d="M136.43,35.55c4.33,0,3.81,3.67,5.33,9.7.9,3.57,3.51,10.45.41,12.76-2.01,1.49-8.93,2.13-11.82,2.76-7.13,1.54-14.22,3.51-21.3,5.33-1,.25-2.47.63-3.9.99-3.04.77-5.82,1.48-8.74,2.29-9.93,2.76-14.51,5.5-13.6,15.9,2.68,6.98,6.17,9.19,11.65,9.19,2.18,0,4.67-.35,7.55-.89,2.98-.56,5.8-1.15,8.86-1.78,1.45-.3,2.93-.61,3.94-.82,10.03-2.05,18.79-3.58,28.63-6.73,1.74-.56,3.08-.84,4.13-.84,3.38,0,3.84,2.89,5.23,8.85.62,2.62,3.29,11.87,1.5,13.84-1.11,1.21-8.36,2.12-10.33,2.57-8.11,1.8-16.12,3.57-24.26,5.25-1.67.34-2.78.57-3.86.79-3.47.72-6.67,1.4-9.25,1.88-5.77,1.08-11.04,1.77-15.78,1.77-14.45,0-24.04-6.47-28.35-28.38h-.02s-.02,0-.02,0c-7.65-28.66,5.05-36.95,27.96-43.3,2.52-.7,5.69-1.51,9.13-2.38,1.06-.27,2.17-.56,3.82-.98,10.08-2.59,20.22-4.96,30.34-7.44,1.08-.23,1.99-.34,2.74-.34M136.43,30.55h0c-1.11,0-2.35.15-3.77.45l-.08.02-.08.02c-3.26.8-6.52,1.59-9.79,2.37-6.75,1.63-13.74,3.32-20.6,5.08-1.65.42-2.76.7-3.82.98-3.21.81-6.57,1.67-9.22,2.4-10.77,2.99-21.62,6.87-28.03,15.01-6.42,8.15-7.51,19.08-3.42,34.4l.11.4c4.48,21.91,14.72,31.69,33.11,31.69,4.59,0,9.9-.59,16.69-1.86,2.39-.44,5.3-1.05,8.39-1.69l.97-.2,1.87-.38,1.98-.41c7.75-1.6,15.33-3.26,24.34-5.27.37-.08,1.2-.23,1.99-.36,6.08-1.05,9.15-1.75,10.94-3.71,2.87-3.15,2.24-8.25-.02-17.17-.12-.48-.23-.89-.3-1.2l-.24-1.02c-1.27-5.48-2.71-11.69-9.86-11.69-1.59,0-3.33.33-5.66,1.08-7.97,2.55-15.4,4.04-23.26,5.62-1.59.32-3.2.64-4.84.98-.52.11-1.11.23-1.76.37-.7.14-1.46.3-2.21.46l-.67.14c-2.76.57-5.37,1.11-8.08,1.62-2.96.55-5.01.8-6.63.8-2.8,0-4.69-.37-6.73-5.34-.42-6.08,1.11-7.46,10.01-9.94,2.65-.74,5.24-1.39,7.97-2.09l.66-.17,1.81-.46,2.08-.53c1.83-.47,3.65-.95,5.48-1.43,5.13-1.35,10.44-2.74,15.64-3.86.67-.14,1.73-.31,2.86-.49,5.1-.81,8.61-1.46,10.88-3.14,5.42-4.02,3.23-11.74,1.92-16.35-.17-.6-.33-1.16-.45-1.64-.31-1.21-.52-2.32-.73-3.39-.73-3.77-1.96-10.09-9.45-10.09h0Z"/>
  </g>
</svg>