<?xml version="1.0" encoding="UTF-8"?><svg id="ufp_logo" xmlns="http://www.w3.org/2000/svg" xmlns:xlink="http://www.w3.org/1999/xlink" viewBox="0 0 715.88 927.58"><defs><radialGradient id="radial-gradient" cx="434.71" cy="488.68" fx="434.71" fy="488.68" r="338.2" gradientUnits="userSpaceOnUse"><stop offset=".31" stop-color="#e7e1de"/><stop offset="1" stop-color="#bfbab8"/></radialGradient><radialGradient id="radial-gradient-2" cx="305.5" cy="463.79" fx="305.5" fy="463.79" r="382.91" gradientUnits="userSpaceOnUse"><stop offset=".31" stop-color="#1c2342"/><stop offset="1" stop-color="#161d36"/></radialGradient></defs><g id="card_back"><path id="fill" d="M630.98,94.68h-11.39v628.6c0,51.66-41.88,93.54-93.54,93.54H194.4c-3.67,26.75-15.21,46.53-30.85,61.12,8.16,3.06,17,4.74,26.23,4.74h441.19c41.37,0,74.9-33.53,74.9-74.9V169.58c0-41.37-33.53-74.9-74.9-74.9Z" style="fill:url(#radial-gradient);"/><path id="stroke" d="M630.98,892.67H189.78c-10.2,0-20.21-1.81-29.74-5.38l-15.13-5.66,11.82-11.02c15.36-14.32,24.7-32.88,27.76-55.16l1.19-8.64h340.37c46.06,0,83.54-37.47,83.54-83.54V84.68h21.39c46.81,0,84.9,38.09,84.9,84.9v638.19c0,46.81-38.09,84.9-84.9,84.9ZM182.26,872.24c2.49.29,5,.43,7.52.43h441.19c35.79,0,64.9-29.11,64.9-64.9V169.58c0-35.79-29.11-64.9-64.9-64.9h-1.39v618.6c0,57.09-46.45,103.54-103.54,103.54H202.83c-3.55,17.14-10.43,32.34-20.56,45.42Z" style="fill:#aeaaa7;"/></g><g id="card_front"><path id="fill-2" d="M526.09,10H84.9C43.53,10,10,43.53,10,84.9v638.19c0,11.41,2.56,22.21,7.12,31.89,10.94,28.01,69.28,90.9,6.54,140.94-9.28,7.4-3.46,22.3,8.38,21.64,54.45-3.06,145.75-22.63,145.75-119.57h348.29c41.37,0,74.9-33.53,74.9-74.9V84.9c0-41.37-33.53-74.9-74.9-74.9Z" style="fill:url(#radial-gradient-2);"/><path id="stroke-2" d="M31.28,927.58c-9.31,0-17.34-5.51-20.71-14.32-3.5-9.17-.81-19.04,6.86-25.16,40.58-32.36,24.67-68.2,1.47-108.31-4.59-7.93-8.56-14.8-10.97-20.85-5.27-11.28-7.94-23.34-7.94-35.85V84.9C0,38.09,38.09,0,84.9,0h441.19c46.81,0,84.9,38.09,84.9,84.9v638.19c0,46.81-38.09,84.9-84.9,84.9H187.49c-2.62,41.43-21.79,72.89-57.08,93.61-31.84,18.69-70.76,24.42-97.8,25.94-.45.03-.89.04-1.33.04ZM84.9,20c-35.79,0-64.9,29.11-64.9,64.9v638.19c0,9.65,2.08,18.94,6.17,27.63l.27.63c1.84,4.71,5.52,11.07,9.78,18.44,9.76,16.88,21.91,37.89,25.22,61.03,4.07,28.45-6.54,52.99-31.54,72.92-.33.26-1.2.95-.65,2.39.59,1.54,1.83,1.47,2.24,1.45,24.84-1.39,60.4-6.55,88.79-23.22,31.53-18.51,47.52-47.57,47.52-86.36v-10h358.29c35.79,0,64.9-29.11,64.9-64.9V84.9c0-35.79-29.11-64.9-64.9-64.9H84.9Z" style="fill:#2a3463;"/></g><g id="text"><path d="M489.01,588.58c-1.6,0-3.21-.03-4.7-.05-1.35-.02-2.62-.04-3.71-.04-.48,0-.94,0-1.35.01-.68.02-1.33.02-1.94.02-4.67,0-6.06-.5-6.41-.7-.37-.96-.23-4.23-.12-6.88.03-.68.06-1.39.08-2.14.35-9.51.29-19.43.24-29.02-.02-4.34-.04-8.67-.03-12.92.03-9.57.07-19.14.1-28.71.01-3.42-.19-6.98-2.72-9.52-2.47-2.48-5.92-2.69-8.96-2.69-.85,0-1.8.02-2.86.05-.55.01-1.33.05-2.28.09-2.34.1-5.53.24-8.61.24-2.69,0-4.35-.11-5.35-.23-.21-2.16-.07-5.86,0-7.45.04-1.13.08-2.03.07-2.74,0-.68-.06-1.6-.12-2.66-.1-1.65-.38-6.24.07-8.33.91-.12,2.63-.24,5.77-.24,2.08,0,4.26.06,6.01.1,1.33.03,2.47.06,3.25.06h47.76c3.41,0,6.88-.05,10.23-.09,3.3-.05,6.71-.09,10-.09h.95c1.88,0,2.85.19,3.3.32.09.82,0,2.43-.06,3.67-.03.64-.07,1.3-.1,2-.05,1.25-.01,3.09.02,5.22.05,2.73.15,8.08-.14,10.32-.46.11-1.31.25-2.8.25h0c-1.25,0-2.6-.09-3.79-.18-.89-.06-1.71-.12-2.39-.14-.5-.01-1.11-.05-1.8-.08-1.49-.08-3.34-.17-5.26-.17-4.79,0-10.03.49-12.67,4.09-2.24,3.06-2.21,8.49-1.91,15.84.04,1.09.08,2.05.08,2.73,0,6.62-.03,13.27-.06,19.93-.06,12.98-.12,26.41.09,39.51.01.67.06,1.53.12,2.5.1,1.67.36,5.82-.09,7.65-1.14.23-3.41.47-7.92.47ZM422.02,588.56c-1.02,0-2.15-.04-3.39-.09-.79-.03-1.63-.06-2.5-.08-.4-.01-.83-.02-1.3-.02-1.12,0-2.45.03-3.88.06-1.62.03-3.38.07-5.14.07-6.31,0-8.19-.54-8.64-.72l-.1-.06c-1.51-1.7-3.79-6.78-5.04-9.58-.54-1.2-1.03-2.3-1.46-3.17-.35-.73-1.09-2.27-2.06-4.31-14-29.44-14.63-30-15.78-31.02-.99-.87-2.23-1.35-3.51-1.35-1.43,0-2.76.57-3.76,1.61-1.64,1.7-2.06,3.99-1.84,10.19v.15c.07,4.41.08,8.91.09,13.27.02,6.82.04,13.87.24,20.9.07,2.43-.13,3.52-.26,3.96-.36.08-1.15.19-2.81.19-1.06,0-2.24-.04-3.55-.08-.71-.02-1.46-.04-2.25-.06-.33,0-.7-.01-1.1-.01-1.04,0-2.31.03-3.7.06-1.6.03-3.37.07-5.13.07-4.56,0-6.52-.29-7.31-.48-.54-1.62-.28-5.85-.17-7.53.06-1.02.12-1.94.13-2.67.36-28.82.2-58.31.05-86.83v-1.73c-.01-.88-.07-2.19-.13-3.72-.11-2.62-.34-8.4-.04-10.79.58-.17,1.8-.41,4.15-.41,1.65,0,3.38.11,4.91.21,1.06.07,2.02.13,2.82.15.36,0,.82.01,1.36.01,1.28,0,3.06-.03,5-.05,2.27-.03,4.76-.07,6.91-.07,2.27,0,3.38.04,3.9.08,1.14,1.09,2.7,4.92,3.31,6.41.32.79.61,1.49.86,2.04,4.06,8.84,8.48,17.85,12.75,26.56,1.9,3.88,3.8,7.74,5.66,11.59.85,1.75,2.62,2.82,4.5,2.82.37,0,.75-.04,1.12-.13,2.27-.52,3.88-2.54,3.88-4.87,0-11.9-.05-23.97-.11-35.65l-.03-6.6c0-.71.04-1.43.1-2.03,1.5-.15,4.27-.29,9.38-.29,1.3,0,2.56,0,3.69.01.95,0,1.81.01,2.54.01s1.38,0,1.83-.02c1.14-.04,2.19-.06,3.14-.06,3.72,0,4.97.36,5.34.52.44,1.17.26,5.29.16,7.79-.4,9.65-.32,19.81-.24,29.64.03,3.99.07,7.96.07,11.84v10.88c-.02,16.38-.03,33.33.2,50.03.03,1.9-.17,2.79-.28,3.15-.32.08-1.05.19-2.61.19ZM297.98,588.56c-2.29,0-3.37-.31-3.88-.57-.73-2.16-.43-7.85-.29-10.4.07-1.41.15-2.74.15-3.89.16-26.99.16-55.93,0-88.47,0-.72-.05-1.65-.1-2.7-.09-1.65-.3-5.75.11-7.55.79-.19,2.54-.46,6.14-.46,1.92,0,3.9.07,5.65.13,1.46.05,2.72.1,3.76.1h.36c.82-.01,1.78-.06,2.81-.12,1.22-.07,2.48-.14,3.69-.14,1.93,0,2.94.19,3.43.33.39,2.81.18,10.65.1,13.77-.04,1.62-.08,2.98-.08,3.86,0,9.45-.03,18.93-.06,28.41-.06,18.71-.13,38.05.08,56.98,0,.83.07,1.76.14,2.84.11,1.65.39,5.79-.1,7.44-.69.15-2.36.38-5.97.38-1.8,0-3.7-.06-5.37-.11-1.49-.04-2.85-.08-3.95-.08-.28,0-.54,0-.78,0-.81.02-1.67.06-2.57.11-1.09.06-2.22.12-3.28.12ZM211.09,588.47c-3.29-.06-6.54-.08-9.95-.08-2.64,0-5.3.02-8.13.04-.38,0-.75,0-1.1,0-1.51,0-2.43-.05-2.99-.11-.04-.43-.07-1.09-.05-2.08.33-19.66.28-39.64.23-58.96-.02-7.16-.04-14.32-.04-21.48,0-8.93-.1-17.79-.3-27.1-.06-2.92.48-3.67.49-3.68.19-.13,1-.39,3.89-.39.54,0,1.1,0,1.67.01.65,0,1.32.01,2,.01,1.09,0,2.02-.02,2.91-.06,6.18-.29,11.31-.51,16.4-.51,5.36,0,10.33.25,15.62.77,31.91,3.18,48.01,14.06,49.21,33.26.17,12.97-4.94,21.78-16.08,27.72-1.5.8-2.85,1.36-4.05,1.85-2.77,1.14-5.63,2.33-6.84,5.6-1.25,3.4.29,6.91,1.84,9.93,2.39,4.68,4.73,9.52,7,14.19,2.7,5.57,5.48,11.33,8.41,16.92.18.34.44.8.75,1.34.3.51.92,1.59,1.45,2.64-1,.04-2.33.06-4.08.06-2,0-4.05-.03-5.85-.05-1.44-.02-2.72-.04-3.69-.04-.39,0-.73,0-1.02,0-.86.02-1.67.04-2.44.07-1.22.04-2.34.07-3.36.07-4.14,0-5.08-.16-7.13-4.61-3.05-6.62-6.22-13.21-9.28-19.57-.96-1.98-1.91-3.97-2.87-5.98-.04-.09-.12-.28-.23-.54-3.74-8.74-6.86-13.8-11.72-13.8-2.18,0-4.16,1.14-5.42,3.12-.9,1.41-1.55,2.42-1.51,18.5.02,7.31.19,15.2.27,17.68l.04,1.14c.05,1.34.1,2.94.02,3.85-.52.11-1.51.23-3.28.23-.25,0-.5,0-.77,0ZM219.94,492.85c-1.32,0-2.59.53-3.53,1.46-.94.94-1.47,2.21-1.47,3.54v22.55c0,2.69,2.12,4.89,4.81,5,1.82.07,3.61.1,5.32.1,8.19,0,14.9-.78,19.93-2.32,10.93-3.35,12.56-10.04,12.56-13.74,0-16.49-28.31-16.56-37.61-16.59h-.01ZM107.11,588.47c-2,0-3.96-.03-5.92-.05-2.01-.03-4.01-.06-6.06-.06-1.27,0-2.56.01-3.87.04-.56.01-1.1.02-1.61.02-2.91,0-4.28-.21-4.9-.37-.09-.94,0-2.76.07-4.27.06-1.14.12-2.4.15-3.79.25-10.24.18-20.86.11-31.13-.03-4.79-.06-9.56-.06-14.28v-3.36c0-17.48,0-35.56-.17-53.38-.02-1.94.25-2.74.35-2.97.27-.1,1.02-.27,3.01-.27.65,0,1.34.01,2.05.03.85.02,1.73.03,2.64.03.73,0,1.49-.01,2.26-.04,1.57-.06,3.06-.13,4.52-.19,4.22-.18,8.21-.36,12.4-.36,2.3,0,4.52.05,6.81.16,24.99,1.14,43.49,7.4,52.07,17.63,4.98,5.94,6.84,13.2,5.67,22.19-3.08,23.76-31.63,29.46-55.03,30.05h-.39c-2.33.06-6.66.15-9.1,4.09-.19.3-.34.62-.46.95-1.14,3.17-1.07,8.81-.86,15.85.04,1.44.08,2.72.08,3.67,0,1.06.04,2.8.09,4.85.09,3.75.28,12.21,0,14.8-.77.13-2.14.13-2.87.14h-.99ZM115.9,492.85c-1.32,0-2.59.52-3.53,1.46-.94.94-1.47,2.21-1.47,3.54v22.55c0,2.69,2.12,4.89,4.81,5,1.82.07,3.61.1,5.33.1,8.19,0,14.89-.78,19.93-2.33,10.93-3.35,12.56-10.04,12.56-13.74,0-16.49-28.31-16.57-37.61-16.59h-.01ZM325.7,461.04c-3.27-.06-6.52-.08-9.93-.08-2.65,0-5.32.02-8.15.04-.38,0-.75,0-1.1,0-1.51,0-2.43-.05-2.99-.11-.04-.43-.07-1.09-.05-2.08.33-19.66.28-39.63.23-58.95-.02-7.16-.04-14.33-.04-21.49,0-8.92-.1-17.79-.3-27.1-.06-2.92.48-3.67.49-3.68.19-.13,1-.39,3.89-.39.54,0,1.1,0,1.67.01.65,0,1.31.02,2,.02,1.09,0,2.02-.02,2.91-.06,6.17-.29,11.3-.51,16.4-.51,5.36,0,10.33.25,15.63.77,31.91,3.18,48,14.06,49.21,33.26.17,12.97-4.94,21.78-16.08,27.72-1.49.8-2.85,1.36-4.05,1.85-2.77,1.14-5.63,2.33-6.84,5.6-1.25,3.4.29,6.91,1.84,9.93,2.39,4.68,4.74,9.52,7,14.2,2.7,5.57,5.48,11.33,8.41,16.92.18.34.44.8.75,1.34.3.51.92,1.59,1.45,2.64-1,.04-2.33.06-4.08.06-2,0-4.05-.03-5.85-.05-1.44-.02-2.72-.04-3.69-.04-.39,0-.73,0-1.02,0-.86.02-1.67.04-2.44.07-1.22.04-2.34.07-3.36.07-4.13,0-5.08-.16-7.13-4.61-3.05-6.62-6.21-13.2-9.27-19.56-.96-1.99-1.92-3.98-2.88-5.99-.04-.09-.12-.28-.23-.54-3.74-8.74-6.86-13.8-11.72-13.8-2.18,0-4.16,1.14-5.42,3.12-.9,1.41-1.55,2.42-1.51,18.5.02,7.32.19,15.21.27,17.68l.04,1.15c.05,1.34.1,2.94.02,3.85-.52.1-1.51.23-3.28.23-.25,0-.51,0-.77,0ZM334.55,365.42c-1.32,0-2.59.52-3.53,1.46-.94.94-1.47,2.21-1.47,3.54v22.55c0,2.69,2.12,4.9,4.81,5,1.82.07,3.61.1,5.32.1,8.19,0,14.9-.78,19.93-2.32,10.93-3.35,12.56-10.04,12.56-13.74,0-16.49-28.31-16.56-37.61-16.59h-.01ZM89.05,461.02c-2.59,0-3.69-.24-4.11-.37-.3-1.14-.18-4.37-.13-5.81.31-8.5.26-17.28.21-25.76-.02-3.13-.04-6.26-.04-9.35v-47.31c0-6.91,0-13.44-.25-20.33-.12-3.15.2-4.31.34-4.66.31-.11,1.18-.29,3.42-.29,1.15,0,2.44.04,3.86.08.77.02,1.58.05,2.42.07,5.94.15,12.41.22,20.37.22,5.19,0,10.4-.03,15.58-.06,5.11-.03,10.2-.06,15.21-.06h.12c.94,0,2.47-.03,4.28-.07,2.51-.05,5.64-.12,8.39-.12,3.88,0,5.19.13,5.57.19.61,1,.4,4.58.31,5.95-.04.68-.08,1.31-.09,1.86-.03,1.06.01,2.49.06,4.14.06,2.22.19,7.08-.11,9.18-.61.19-1.94.45-4.6.45-1.44,0-2.91-.07-4.22-.14-.92-.05-1.76-.09-2.46-.1-3.87-.07-7.74-.08-11.48-.09-5.06-.01-10.29-.02-15.49-.2-.64-.02-1.25-.03-1.83-.03-3.81,0-8.1.42-11.09,3.52-2.99,3.1-3.18,7.44-3.07,10.43.43,11.28,9.92,11.28,13.04,11.28.92,0,1.9-.03,2.93-.06l1.22-.04c5.14-.13,10.48-.19,15.65-.25l5.83-.07c1.47,0,2.29.12,2.71.22.11.87.07,2.55.03,3.96l-.02.76c-.13,5.05-.05,9.26.07,13.86.04,1.58-.09,2.39-.18,2.75-.38.09-1.21.2-2.97.2-.96,0-2.01-.03-3.15-.06l-1.4-.04c-.74-.02-1.86-.05-3.22-.09-4.16-.13-10.45-.32-15.26-.32s-6.28.19-7.2.39c-7.27,1.62-7.53,7.65-7.66,10.55-.15,3.47-.04,7.32.08,11.03.07,2.39.14,4.65.14,6.78,0,.92.04,2.5.08,4.39.08,3.3.26,10.66.05,13.18-.76.13-2.09.15-3.04.16-.62,0-1.22,0-1.83,0-1.67,0-3.31-.02-4.94-.04-1.68-.02-3.35-.04-5.06-.04-1.81,0-3.44.03-4.99.08-.75.03-1.44.04-2.08.04ZM231.17,460.76c-19.32,0-36.45-5.77-45.81-15.44-10.69-11.04-11.87-27-12.44-50.09-.3-12.15,3.61-22.47,11.62-30.68,10.48-10.75,27.92-17.16,46.63-17.16s36.15,6.42,46.63,17.16c8.01,8.21,11.92,18.53,11.62,30.68-.57,23.09-1.74,39.05-12.44,50.09-9.36,9.67-26.49,15.44-45.81,15.44ZM231.17,367.26c-11.55,0-21.82,3.74-28.18,10.26-4.61,4.72-6.95,10.74-6.79,17.4.49,20,1.25,32.62,7.55,39.12,6.6,6.81,22.65,7.34,27.41,7.34s20.82-.53,27.41-7.34c6.3-6.5,7.06-19.12,7.55-39.12.16-6.66-2.18-12.68-6.79-17.4-6.36-6.52-16.63-10.26-28.18-10.26ZM134.29,333.74c-1.24,0-2.53-.02-3.84-.07-.06,0-.28,0-.33,0-1.31.04-2.6.07-3.84.07-33.89,0-40.52-15.41-41.91-47.78-.16-3.66-.26-8.31-.37-13.24,0,0-.07-3.32-.13-5.64-.23-9.76-.32-19.71-.42-29.33-.05-4.95-.1-9.9-.16-14.85.04-1.92.26-2.83.39-3.2.28-.06.85-.13,1.95-.13.83,0,1.73.03,2.71.07,1.26.05,2.7.1,4.27.1.42,0,.85,0,1.29-.01.82-.02,1.77-.06,2.78-.11,1.44-.07,2.92-.14,4.4-.14,4.3,0,5.63.68,5.93.88.46,1.67.05,7.47-.15,10.29-.13,1.86-.25,3.47-.27,4.77-.12,7.87.12,15.86.34,23.59.08,2.59.15,5.18.21,7.76.04,1.45.08,3.6.13,5.69.1,4.4.19,8.55.37,12.93.6,14.06,2.67,25.92,21.93,28.63.23.03.46.05.7.05s.47-.02.7-.05c19.26-2.71,21.33-14.57,21.93-28.63.19-4.41.28-8.55.37-12.93.04-2.09.09-4.23.13-5.69.06-2.27.13-4.5.19-6.69.35-11.82.69-22.98-.36-35.59-.24-2.95-.04-4.15.08-4.56,1.14-.4,4.59-.4,7.4-.4h1.62c.52,0,1.2-.02,2.01-.03,1.15-.02,2.57-.05,4.1-.05,5.29,0,7.91.38,9.12.67.13,2.27-.11,6.46-.23,8.46-.08,1.43-.15,2.56-.16,3.38-.1,11.2-.22,23.14-.5,35.15-.06,2.42-.09,4.04-.13,5.6v.12c-.11,4.9-.21,9.53-.37,13.17-1.39,32.37-8.02,47.78-41.91,47.78ZM480.47,333.71c-1.6,0-3.21-.03-4.7-.05-1.35-.02-2.62-.04-3.71-.04-.48,0-.94,0-1.35.01-.68.02-1.33.02-1.94.02-4.67,0-6.06-.5-6.42-.7-.37-.96-.23-4.23-.12-6.88.03-.68.06-1.39.08-2.14.35-9.51.29-19.43.24-29.03-.02-4.34-.04-8.66-.03-12.92l.1-28.71c.01-3.42-.19-6.98-2.72-9.52-2.47-2.48-5.92-2.69-8.96-2.69-.85,0-1.8.02-2.86.05-.55.01-1.33.05-2.28.09-2.33.1-5.53.24-8.6.24-2.69,0-4.35-.11-5.35-.23-.21-2.16-.07-5.86,0-7.46.04-1.13.08-2.03.07-2.73,0-.68-.06-1.6-.12-2.66-.1-1.65-.38-6.24.07-8.33.91-.12,2.63-.24,5.78-.24,2.08,0,4.26.06,6.01.1,1.33.03,2.46.06,3.25.06h47.73c3.41,0,6.87-.05,10.22-.09,3.29-.05,6.7-.1,9.99-.1h.99c1.88,0,2.85.19,3.3.32.09.82,0,2.43-.06,3.67-.03.64-.07,1.3-.1,2-.05,1.25-.02,3.1.02,5.23.05,2.73.15,8.08-.14,10.32-.46.11-1.31.25-2.8.25-1.25,0-2.6-.09-3.79-.18-.89-.06-1.71-.12-2.39-.14-.5-.01-1.11-.05-1.81-.08-1.49-.08-3.34-.17-5.26-.17-4.79,0-10.03.49-12.67,4.08-2.24,3.06-2.21,8.5-1.91,15.84.04,1.1.08,2.05.08,2.73,0,6.61-.03,13.26-.06,19.91-.06,12.99-.12,26.43.09,39.53,0,.67.06,1.53.12,2.51.1,1.67.36,5.81-.09,7.64-1.14.23-3.41.47-7.92.47ZM277.94,333.69c-1.02,0-2.15-.04-3.4-.09-.79-.03-1.62-.06-2.5-.08-.4-.01-.83-.02-1.31-.02-1.12,0-2.45.03-3.88.06-1.62.03-3.38.07-5.14.07-6.3,0-8.19-.54-8.64-.72l-.1-.06c-1.51-1.7-3.79-6.78-5.04-9.58-.54-1.2-1.03-2.3-1.46-3.18-.35-.73-1.08-2.26-2.05-4.29-14-29.46-14.64-30.02-15.8-31.04-.98-.87-2.23-1.35-3.51-1.35-1.43,0-2.76.57-3.76,1.61-1.65,1.71-2.06,3.99-1.83,10.2v.14c.06,4.39.08,8.89.09,13.24.02,6.83.04,13.89.25,20.93.07,2.43-.13,3.52-.26,3.96-.36.08-1.15.19-2.8.19-1.06,0-2.24-.04-3.55-.08-.71-.02-1.46-.05-2.25-.07-.33,0-.69-.01-1.09-.01-1.04,0-2.31.03-3.7.06-1.6.03-3.37.07-5.13.07h0c-4.56,0-6.52-.29-7.31-.48-.54-1.62-.28-5.85-.17-7.53.06-1.02.12-1.94.13-2.67.36-28.79.2-58.26.05-86.75v-1.81c-.01-.88-.07-2.19-.13-3.71-.11-2.63-.34-8.41-.04-10.79.58-.17,1.8-.42,4.15-.42,1.65,0,3.38.11,4.92.21,1.06.07,2.02.13,2.82.15.36,0,.82.01,1.36.01,1.28,0,3.06-.02,5-.05,2.27-.03,4.76-.07,6.92-.07,2.26,0,3.37.04,3.9.08,1.14,1.09,2.7,4.92,3.31,6.41.32.79.61,1.49.86,2.04,4.06,8.84,8.48,17.85,12.75,26.57,1.9,3.88,3.8,7.74,5.66,11.59.85,1.75,2.62,2.82,4.5,2.82.37,0,.75-.04,1.12-.13,2.27-.52,3.88-2.54,3.88-4.87,0-12.08-.05-24.34-.11-36.19l-.03-6.06c0-.71.04-1.43.1-2.03,1.5-.15,4.28-.29,9.38-.29,1.3,0,2.55,0,3.68.01.94,0,1.8.01,2.53.01s1.39,0,1.84-.02c1.14-.04,2.18-.06,3.14-.06,3.72,0,4.97.36,5.35.52.44,1.17.27,5.29.16,7.79-.4,9.65-.32,19.82-.24,29.65.03,3.99.06,7.95.06,11.83v10.86c-.02,16.39-.03,33.33.2,50.04.03,1.9-.17,2.79-.28,3.15-.32.08-1.05.19-2.61.19ZM394.3,333.69c-2.29,0-3.37-.31-3.88-.57-.73-2.16-.43-7.85-.29-10.4.07-1.41.15-2.74.15-3.89.16-26.9.16-55.84,0-88.47,0-.72-.05-1.65-.1-2.69-.09-1.65-.3-5.75.11-7.55.79-.19,2.54-.46,6.15-.46,1.92,0,3.9.07,5.65.13,1.46.05,2.72.1,3.76.1h.36c.82-.01,1.78-.06,2.81-.12,1.22-.07,2.48-.14,3.69-.14,1.93,0,2.94.19,3.43.33.39,2.81.18,10.65.1,13.77-.04,1.62-.08,2.98-.08,3.85,0,9.42-.03,18.88-.06,28.33-.06,18.73-.13,38.1.08,57.06,0,.83.07,1.76.14,2.84.11,1.65.39,5.79-.1,7.44-.69.15-2.36.38-5.97.38-1.8,0-3.7-.06-5.38-.11-1.49-.04-2.85-.08-3.95-.08-.27,0-.53,0-.77,0-.81.02-1.67.06-2.57.11-1.09.06-2.22.12-3.28.12ZM302.63,333.59c-2.59,0-3.69-.24-4.11-.37-.3-1.14-.18-4.37-.13-5.81.31-8.5.26-17.27.21-25.76-.02-3.14-.04-6.26-.04-9.35v-47.34c0-6.9,0-13.42-.25-20.3-.12-3.15.2-4.31.34-4.66.31-.11,1.18-.29,3.42-.29,1.15,0,2.44.04,3.86.08.77.02,1.58.05,2.42.07,5.94.15,12.41.22,20.37.22,5.2,0,10.42-.03,15.61-.06,5.12-.03,10.21-.06,15.24-.06,1.02,0,2.54-.03,4.35-.07,2.51-.05,5.64-.12,8.39-.12,3.88,0,5.19.13,5.57.19.61,1,.4,4.58.31,5.95-.04.68-.08,1.31-.09,1.86-.03,1.06.01,2.48.06,4.14.06,2.22.19,7.09-.11,9.18-.61.19-1.94.45-4.6.45-1.44,0-2.91-.07-4.22-.14-.92-.05-1.76-.09-2.46-.1-3.87-.07-7.74-.08-11.48-.09-5.06-.01-10.29-.02-15.49-.2-.64-.02-1.25-.03-1.83-.03-3.81,0-8.1.42-11.09,3.52-2.99,3.1-3.18,7.44-3.07,10.43.43,11.26,9.87,11.28,13.01,11.28h.02c.92,0,1.9-.03,2.93-.06l1.22-.04c5.14-.13,10.48-.19,15.65-.25l5.83-.06c1.47,0,2.29.12,2.71.22.12.87.07,2.56.03,3.96l-.02.76c-.14,5.06-.05,9.27.07,13.86.04,1.58-.09,2.39-.18,2.75-.38.09-1.21.2-2.97.2-.96,0-2.01-.03-3.15-.06l-1.4-.04c-.74-.02-1.87-.05-3.24-.09-4.15-.13-10.43-.32-15.24-.32s-6.29.19-7.2.39c-7.26,1.62-7.53,7.65-7.66,10.55-.15,3.47-.04,7.32.08,11.04.07,2.39.14,4.65.14,6.78,0,.92.04,2.5.08,4.39.08,3.3.26,10.66.05,13.18-.76.13-2.09.15-3.04.16-.62,0-1.23,0-1.84,0-1.67,0-3.3-.02-4.94-.04-1.67-.02-3.35-.04-5.05-.04-1.81,0-3.45.03-4.99.08-.74.03-1.43.04-2.08.04h0Z" style="fill:#f1f2f2;"/><path d="M259.77,219.98h0,0M198.61,220.33h0,0M436.78,221.01h0,0M158.18,221.11h0,0M395.2,221.17h0,0M88.44,221.22h0,0M303.41,221.56h0,0M168.46,224.41c1.67,0,3.01.04,4.1.1-.06,1.44-.14,2.85-.19,3.75-.09,1.5-.16,2.69-.16,3.62-.1,11.18-.22,23.09-.5,35.07-.06,2.35-.09,3.94-.12,5.46v.15s0,.13,0,.13c-.11,4.87-.21,9.47-.36,13.06-.73,16.95-2.99,26.82-7.56,32.97-3.2,4.3-9.71,10.02-29.35,10.02-1.19,0-2.42-.02-3.68-.06-.11,0-.22,0-.33,0s-.22,0-.33,0c-1.25.04-2.49.06-3.68.06-19.64,0-26.16-5.72-29.35-10.02-4.57-6.16-6.83-16.02-7.56-32.98-.15-3.58-.25-8.17-.36-13.04v-.14s0-.07,0-.07c-.03-1.54-.07-3.15-.13-5.53-.23-9.73-.32-19.66-.42-29.27-.04-4.35-.08-8.71-.14-13.06,1.27.05,2.7.09,4.3.09.45,0,.91,0,1.38-.01.93-.02,1.9-.07,2.93-.12,1.38-.07,2.8-.14,4.16-.14.41,0,.79,0,1.12.02-.06,1.99-.22,4.36-.33,5.79-.14,1.94-.26,3.61-.28,5.05-.12,7.98.12,16.03.34,23.8.08,2.58.15,5.16.21,7.74.04,1.45.08,3.59.13,5.68.1,4.42.19,8.6.38,13.04.62,14.44,3.21,30.13,26.23,33.36.46.06.93.1,1.39.1s.93-.03,1.39-.1c23.02-3.24,25.61-18.92,26.23-33.36.19-4.44.28-8.62.38-13.04.04-2.09.09-4.22.13-5.66.06-2.27.13-4.49.19-6.68.35-11.82.69-23-.33-35.7.86,0,1.76,0,2.59,0h1.5c.54,0,1.26-.02,2.1-.03,1.13-.02,2.53-.05,4-.05M198.46,224.52c1.29.03,2.66.11,3.89.19,1.07.07,2.07.13,3.01.16.39.01.9.02,1.49.02,1.33,0,3.15-.03,5.07-.05,2.22-.03,4.74-.07,6.84-.07.41,0,.78,0,1.11,0,.56,1.15,1.15,2.6,1.47,3.37.32.79.63,1.55.95,2.23,4.08,8.9,8.52,17.94,12.81,26.68,1.9,3.87,3.79,7.73,5.65,11.57,1.7,3.5,5.23,5.64,9,5.64.74,0,1.49-.08,2.24-.25,4.54-1.04,7.76-5.09,7.76-9.75,0-12.12-.05-24.41-.11-36.29v-3.22c1.19-.03,2.67-.05,4.46-.05,1.29,0,2.53,0,3.65.01.95,0,1.82.01,2.56.01.83,0,1.51,0,2.01-.02,1.15-.04,2.12-.06,2.97-.06.22,0,.43,0,.62,0-.02,1.11-.07,2.27-.11,3.1-.41,9.77-.32,20-.24,29.9.03,3.9.06,7.94.06,11.8,0,3.62,0,7.24,0,10.87-.01,15.83-.02,32.17.18,48.33-.35-.01-.71-.02-1.08-.04-.81-.03-1.65-.06-2.54-.08-.44-.01-.92-.02-1.44-.02-1.19,0-2.55.03-3.98.06-1.64.03-3.35.07-5.04.07-2.94,0-4.71-.12-5.74-.23-1.14-1.96-2.66-5.35-3.48-7.17-.54-1.2-1.05-2.34-1.52-3.31-.35-.72-1.07-2.24-2.03-4.25-14.45-30.39-14.99-30.87-17.01-32.66-1.9-1.67-4.32-2.59-6.82-2.59-2.75,0-5.44,1.14-7.36,3.13-3.34,3.46-3.45,7.92-3.23,13.85v.07c.06,4.39.08,8.84.09,13.15.02,6.53.04,13.27.22,20.02-.45-.01-.93-.03-1.43-.04-.72-.02-1.48-.05-2.28-.07-.37,0-.77-.01-1.21-.01-1.12,0-2.43.03-3.81.06-1.56.03-3.34.07-5.03.07-1.03,0-1.9-.01-2.63-.04.03-.99.09-1.98.14-2.65.06-1.03.13-2.01.14-2.92.36-28.83.2-58.31.05-86.82v-1.82c-.02-1.01-.07-2.35-.13-3.89-.06-1.39-.15-3.81-.18-5.99M396.44,224.66c1.83,0,3.77.07,5.47.13,1.51.05,2.81.1,3.94.1h.41c.98-.01,1.97-.07,3.03-.13.69-.04,1.39-.08,2.07-.1.03,3.14-.08,7.03-.13,8.94-.04,1.68-.08,3.01-.08,3.99,0,9.42-.03,19.04-.06,28.34-.06,18.74-.13,38.12.08,57.11.01.97.08,2.01.16,3.12.04.63.1,1.55.14,2.48-.37,0-.78.01-1.22.01-1.73,0-3.51-.05-5.23-.1-1.49-.04-2.89-.09-4.09-.09-.31,0-.6,0-.88,0-.92.02-1.85.07-2.75.12-.83.05-1.62.09-2.36.11-.02-1.95.1-4.29.18-5.7.08-1.47.15-2.86.16-4.13.16-26.94.16-55.9,0-88.53,0-.89-.06-1.88-.11-2.93-.03-.65-.09-1.68-.11-2.73.41,0,.87-.02,1.38-.02M303.32,224.72c.75.02,1.57.04,2.47.07.78.02,1.59.05,2.45.07,5.98.15,12.49.22,20.49.22,5.21,0,10.5-.03,15.62-.06,5.01-.03,10.2-.06,15.19-.06h.1c1.02,0,2.51-.03,4.38-.07,2.49-.05,5.59-.11,8.29-.11.33,0,.65,0,.94,0-.02.31-.03.59-.05.83-.04.67-.08,1.36-.1,2.04-.03,1.19,0,2.68.06,4.41.03,1.13.08,2.85.08,4.49-1.25,0-2.58-.07-3.76-.13-.93-.05-1.8-.09-2.61-.1-3.91-.07-7.8-.08-11.56-.09-5.02-.01-10.22-.02-15.34-.19-.7-.02-1.36-.04-1.99-.04-4.57,0-10.38.57-14.69,5.05-4.81,4.99-4.55,11.83-4.46,14.08.18,4.84,2.31,16.1,18.03,16.1,1.03,0,2.07-.03,3.08-.06.39-.01.79-.02,1.2-.03,5.11-.13,10.43-.19,15.57-.25,1.16-.01,2.33-.03,3.49-.04-.11,4.25-.06,7.92.02,11.7-.35,0-.73-.02-1.12-.03l-1.42-.04c-.73-.02-1.84-.05-3.2-.09-4.19-.13-10.51-.32-15.4-.32s-6.87.2-8.29.51c-7.3,1.62-11.19,6.74-11.57,15.22-.16,3.66-.04,7.6.07,11.4.07,2.35.14,4.57.14,6.63,0,1.01.04,2.55.08,4.51.05,1.92.13,5.34.14,8.22-1.61,0-3.18-.02-4.84-.04-1.66-.02-3.37-.05-5.12-.05-1.87,0-3.56.03-5.17.08-.42.01-.82.02-1.19.03.01-.4.02-.75.03-1,.31-8.6.26-17.44.21-25.98-.02-3.12-.04-6.24-.04-9.32v-47.31c0-6.88,0-13.38-.24-20.27M514.01,224.77c-.01.26-.02.52-.03.79-.05,1.4-.02,3.3.02,5.51.02,1.36.06,3.46.06,5.41-.48-.03-.96-.06-1.44-.09-.91-.06-1.76-.12-2.6-.15-.47-.01-1.04-.04-1.7-.08-1.54-.08-3.47-.17-5.51-.17-5.69,0-12.73.7-16.7,6.13-3.21,4.38-3.22,10.37-2.87,19,.04,1.03.08,2,.08,2.53,0,6.6-.03,13.36-.06,19.89-.06,13.01-.12,26.47.09,39.62.01.84.07,1.76.13,2.73.04.66.11,1.7.14,2.76-.87.03-1.91.05-3.16.05-1.55,0-3.11-.03-4.61-.05-1.38-.02-2.68-.05-3.8-.05-.52,0-1.01,0-1.47.01-.64.01-1.25.02-1.82.02-.62,0-1.17,0-1.64-.03.02-.77.06-1.59.09-2.35.03-.69.06-1.41.09-2.16.35-9.6.3-19.57.25-29.21-.02-4.26-.05-8.66-.03-12.9.02-7.38.05-14.76.08-22.13l.02-6.57c.01-3.09.03-8.84-4.18-13.07-4.14-4.16-9.79-4.16-12.5-4.16-.98,0-2.02.02-3,.05-.57.02-1.38.05-2.37.09-2.29.1-5.42.24-8.38.24-.15,0-.29,0-.43,0,.02-1,.06-1.91.08-2.48.05-1.21.08-2.16.07-2.99,0-.86-.07-1.81-.13-2.91-.05-.77-.12-2.02-.16-3.27.32,0,.65,0,1.01,0,2.02,0,4.07.05,5.88.1,1.34.03,2.49.06,3.38.06h8.31s7.75,0,7.75,0h7.75c7.93,0,15.87,0,23.81,0h.11c3.44,0,6.93-.05,10.3-.1,3-.04,6.09-.09,9.09-.09M89.83,348.99h0,0M308.46,349.47h0,0M330.73,351.67c5.19,0,10,.24,15.13.75,13.8,1.37,24.58,4.32,32.07,8.75,8.04,4.76,12.06,11.03,12.64,19.73.11,10.97-4.04,18.1-13.44,23.11-1.28.68-2.46,1.17-3.61,1.64-3.05,1.26-7.66,3.16-9.62,8.5-2.12,5.74.72,11.28,2.08,13.94,2.37,4.63,4.7,9.45,6.96,14.1,2.18,4.51,4.43,9.15,6.77,13.74-.52,0-1.03-.01-1.52-.02-1.47-.02-2.78-.04-3.76-.04-.43,0-.81,0-1.13.01-.87.02-1.7.04-2.48.07-1.23.04-2.29.07-3.21.07-.85,0-1.39-.03-1.72-.06-.2-.3-.49-.82-.87-1.64-3.07-6.66-6.24-13.26-9.31-19.64-.94-1.96-1.88-3.92-2.83-5.89-.05-.11-.11-.25-.18-.43-2.87-6.7-7.2-16.83-16.31-16.83-3.92,0-7.43,1.98-9.64,5.43-1.77,2.77-2.34,5.02-2.3,21.21.02,7.37.19,15.33.27,17.83v.04c-2.93-.04-5.85-.07-8.9-.07-2.18,0-4.51.01-7.26.03.28-18.76.23-37.75.18-56.14-.02-7.16-.04-14.32-.04-21.47,0-8.63-.09-17.2-.28-26.17.32,0,.64,0,.97.01.67,0,1.35.02,2.06.02,1.17,0,2.17-.02,3.14-.07,6.11-.28,11.18-.5,16.16-.5M339.69,403.07c8.69,0,15.89-.86,21.4-2.54,14.53-4.45,16.1-14.43,16.09-18.52,0-5.27-2.36-14.76-18.19-19.02-6.25-1.68-14.46-2.55-24.41-2.57,0,0-.02,0-.03,0-2.65,0-5.19,1.05-7.06,2.92-1.88,1.88-2.94,4.42-2.94,7.08v22.55c0,5.38,4.25,9.79,9.62,9.99,1.88.07,3.74.11,5.51.11M89.74,352.15c.75.02,1.57.04,2.47.07.78.02,1.59.05,2.45.07,5.98.15,12.49.22,20.49.22,5.21,0,10.51-.03,15.63-.06,5.01-.03,10.2-.06,15.2-.06h.09c1.02,0,2.51-.03,4.38-.07,2.49-.05,5.59-.11,8.28-.11.33,0,.65,0,.94,0-.02.31-.03.59-.05.83-.04.67-.08,1.36-.1,2.04-.03,1.19,0,2.68.06,4.41.03,1.13.08,2.86.08,4.49-1.25,0-2.58-.07-3.76-.13-.93-.05-1.8-.09-2.61-.1-3.91-.07-7.8-.08-11.56-.09-5.02-.01-10.22-.02-15.34-.19-.7-.02-1.36-.03-1.99-.03-4.57,0-10.38.57-14.69,5.05-4.81,4.99-4.55,11.83-4.46,14.08.18,4.84,2.3,16.1,18.03,16.1,1.03,0,2.07-.03,3.08-.06.39-.01.79-.02,1.2-.03,5.11-.13,10.44-.19,15.59-.25,1.16-.01,2.31-.03,3.46-.04-.11,4.26-.06,7.92.02,11.7-.36,0-.73-.02-1.12-.03l-1.42-.04c-.73-.02-1.84-.05-3.19-.09-4.19-.13-10.52-.32-15.41-.32s-6.87.2-8.29.51c-7.3,1.63-11.19,6.74-11.57,15.22-.16,3.66-.04,7.59.07,11.4.07,2.35.14,4.57.14,6.63,0,1.01.04,2.55.08,4.51.05,1.92.13,5.34.14,8.22-1.61,0-3.18-.02-4.84-.04-1.66-.02-3.37-.04-5.12-.04-1.87,0-3.56.03-5.17.08-.42.01-.82.02-1.19.03.01-.4.02-.75.03-1,.31-8.6.26-17.44.21-25.98-.02-3.12-.04-6.23-.04-9.32v-47.3c0-6.88,0-13.38-.24-20.27M231.17,352.4c17.4,0,33.49,5.85,43.05,15.65,7.03,7.21,10.46,16.31,10.2,27.06-.63,25.58-2.3,37.72-11.03,46.73-8.32,8.58-24.49,13.92-42.22,13.92s-33.91-5.33-42.22-13.92c-8.73-9.01-10.4-21.16-11.03-46.73-.27-10.75,3.17-19.86,10.2-27.06,9.56-9.8,25.66-15.65,43.05-15.65M231.17,446.38c8.37,0,23.54-1.15,31.01-8.86,7.57-7.81,8.43-21.26,8.96-42.48.2-8.04-2.64-15.31-8.21-21.01-7.3-7.48-18.87-11.77-31.76-11.77s-24.46,4.29-31.76,11.77c-5.57,5.71-8.41,12.97-8.21,21.01.52,21.22,1.39,34.66,8.96,42.48,7.47,7.71,22.63,8.86,31.01,8.86M403.85,474.85h0,0M342.69,475.2h0,0M445.32,475.87h0,0M298.87,476.04h0,0M89.93,476.5h0,0M193.85,476.9h0,0M112.1,479.09h0c2.22,0,4.37.05,6.58.15,23.58,1.07,40.79,6.7,48.47,15.85,4.03,4.81,5.52,10.8,4.54,18.34-1.14,8.77-6.1,14.89-15.63,19.25-8.53,3.91-20.16,6.08-34.56,6.44h-.37c-2.81.07-9.38.21-13.25,6.46-.37.6-.68,1.23-.91,1.89-1.43,4-1.38,9.85-1.15,17.69.04,1.38.08,2.68.08,3.52,0,1.15.04,2.83.09,4.97.05,2.29.15,6.48.15,9.82-1.61,0-3.2-.03-4.87-.05-1.99-.03-4.04-.06-6.14-.06-1.41,0-2.71.01-3.96.04-.46,0-.89.02-1.31.02.05-.99.1-2.09.13-3.3.26-10.32.18-20.98.12-31.28-.03-4.69-.06-9.55-.06-14.24v-3.39c0-16.89,0-34.33-.15-51.57.1,0,.2,0,.31,0,.88.02,1.79.04,2.74.04.87,0,1.68-.01,2.45-.04,1.57-.06,3.07-.13,4.53-.19,4.35-.19,8.11-.35,12.19-.35M121.04,530.5c8.69,0,15.88-.86,21.39-2.54,14.52-4.45,16.09-14.43,16.09-18.52,0-5.27-2.36-14.75-18.19-19.01-6.25-1.68-14.46-2.55-24.41-2.58h-.03c-2.65,0-5.19,1.05-7.06,2.92-1.88,1.88-2.94,4.42-2.94,7.08v22.55c0,5.38,4.25,9.79,9.62,9.99,1.88.07,3.74.11,5.52.11M216.12,479.1c5.19,0,10,.24,15.13.75,13.8,1.38,24.58,4.32,32.07,8.75,8.04,4.76,12.06,11.03,12.64,19.73.11,10.97-4.04,18.1-13.44,23.11-1.28.68-2.46,1.17-3.61,1.64-3.05,1.26-7.66,3.16-9.62,8.5-2.12,5.74.72,11.28,2.08,13.94,2.37,4.63,4.7,9.44,6.95,14.1,2.19,4.52,4.43,9.15,6.77,13.75-.52,0-1.03-.01-1.52-.02-1.47-.02-2.78-.04-3.76-.04-.43,0-.81,0-1.13.01-.87.02-1.7.04-2.48.07-1.23.04-2.29.07-3.21.07-.85,0-1.39-.03-1.72-.06-.2-.3-.49-.82-.87-1.64-3.07-6.67-6.24-13.27-9.32-19.65-.94-1.95-1.88-3.91-2.83-5.88-.05-.11-.11-.25-.18-.43-2.87-6.7-7.2-16.83-16.31-16.83-3.86,0-7.47,2.03-9.64,5.43-1.77,2.77-2.34,5.02-2.3,21.21.02,7.36.19,15.33.27,17.83v.04c-2.93-.04-5.85-.07-8.9-.07-2.19,0-4.52.01-7.26.03.28-18.76.23-37.75.18-56.13-.02-7.16-.04-14.32-.04-21.48,0-8.63-.09-17.2-.28-26.17.32,0,.64,0,.97.01.67,0,1.35.02,2.05.02,1.17,0,2.17-.02,3.14-.07,6.32-.29,11.17-.5,16.17-.5M225.08,530.5c8.69,0,15.89-.86,21.39-2.54,14.53-4.45,16.1-14.43,16.09-18.52,0-5.27-2.36-14.76-18.19-19.02-6.25-1.68-14.46-2.55-24.41-2.57h-.03c-2.65,0-5.19,1.05-7.06,2.92-1.88,1.88-2.94,4.42-2.94,7.08v22.55c0,5.38,4.25,9.79,9.62,9.99,1.88.07,3.74.11,5.51.11M342.54,479.39c1.29.03,2.66.11,3.89.19,1.07.07,2.07.13,3.01.16.39.01.9.02,1.49.02,1.33,0,3.15-.03,5.07-.05,2.22-.03,4.75-.07,6.85-.07.41,0,.78,0,1.11,0,.56,1.15,1.15,2.6,1.47,3.37.32.79.63,1.55.95,2.23,4.08,8.9,8.52,17.93,12.8,26.67,1.9,3.87,3.8,7.74,5.66,11.58,1.7,3.5,5.23,5.64,9,5.64.74,0,1.49-.08,2.24-.25,4.54-1.04,7.76-5.09,7.76-9.75,0-12.08-.05-24.33-.11-36.18v-3.34c1.19-.03,2.66-.05,4.45-.05,1.29,0,2.54,0,3.66.01.96,0,1.83.01,2.57.01.82,0,1.5,0,2-.02,1.15-.04,2.12-.06,2.98-.06.22,0,.42,0,.62,0-.02,1.11-.07,2.27-.11,3.1-.41,9.77-.32,20-.24,29.89.03,3.9.06,7.94.06,11.8,0,3.62,0,7.24,0,10.87-.01,15.83-.02,32.17.18,48.33-.35-.01-.71-.02-1.08-.04-.81-.03-1.65-.06-2.54-.08-.44-.01-.92-.02-1.44-.02-1.19,0-2.55.03-3.98.06-1.64.03-3.35.07-5.04.07-2.94,0-4.71-.12-5.74-.23-1.14-1.96-2.66-5.35-3.48-7.17-.54-1.2-1.05-2.34-1.52-3.31-.35-.72-1.07-2.24-2.03-4.25-14.45-30.39-14.99-30.87-17.01-32.65-1.9-1.68-4.32-2.6-6.82-2.6-2.75,0-5.44,1.14-7.36,3.13-3.34,3.46-3.45,7.92-3.24,13.84v.08c.06,4.39.08,8.84.09,13.15.02,6.53.04,13.27.22,20.02-.45-.01-.93-.03-1.43-.04-.72-.02-1.48-.05-2.28-.07-.37,0-.78-.01-1.22-.01-1.12,0-2.43.03-3.81.06-1.56.03-3.33.07-5.02.07-1.03,0-1.9-.01-2.63-.04.03-.99.09-1.98.14-2.65.06-1.03.13-2.01.14-2.92.36-28.85.2-58.34.05-86.86v-1.78c-.01-1.01-.07-2.35-.13-3.9-.06-1.39-.15-3.81-.18-5.99M300.11,479.52c1.83,0,3.77.07,5.47.13,1.51.05,2.81.1,3.94.1h.41c.98-.01,1.97-.07,3.03-.13.69-.04,1.39-.08,2.07-.1.03,3.14-.08,7.03-.13,8.94-.04,1.68-.08,3.01-.08,3.99,0,9.43-.03,19.05-.06,28.36-.06,18.73-.13,38.11.08,57.09.01.97.08,2.01.16,3.12.04.63.1,1.55.14,2.48-.37,0-.78.01-1.22.01-1.72,0-3.51-.05-5.23-.1-1.49-.04-2.89-.09-4.09-.09-.31,0-.6,0-.88,0-.92.02-1.85.07-2.74.12-.83.05-1.62.09-2.36.11-.02-1.95.1-4.29.18-5.7.08-1.47.15-2.86.16-4.13.16-26.99.16-55.95,0-88.53,0-.89-.06-1.88-.11-2.93-.03-.65-.09-1.68-.11-2.73.41,0,.87-.02,1.38-.02M522.55,479.64c-.01.26-.02.52-.03.79-.05,1.4-.02,3.3.02,5.51.02,1.36.06,3.46.06,5.41-.48-.03-.96-.06-1.44-.09-.91-.06-1.76-.12-2.6-.15-.47-.01-1.04-.04-1.7-.08-1.54-.08-3.47-.17-5.51-.17-5.69,0-12.73.7-16.7,6.13-3.21,4.38-3.22,10.37-2.87,19,.04,1.03.08,2,.08,2.53,0,6.6-.03,13.36-.06,19.9-.06,13.01-.12,26.47.09,39.62.01.84.07,1.76.13,2.73.04.66.11,1.7.14,2.76-.87.03-1.91.05-3.16.05-1.55,0-3.11-.03-4.61-.05-1.38-.02-2.67-.05-3.8-.05-.52,0-1.02,0-1.47.01-.64.01-1.25.02-1.82.02-.62,0-1.16,0-1.64-.03.02-.77.06-1.59.09-2.34.03-.69.06-1.41.09-2.16.35-9.61.3-19.57.25-29.22-.02-4.26-.05-8.66-.03-12.9.03-7.75.05-15.5.08-23.25l.02-5.45c.01-3.09.03-8.84-4.18-13.07-4.14-4.16-9.79-4.16-12.5-4.16-.98,0-2.02.02-2.99.05-.57.02-1.38.05-2.36.09-2.29.1-5.42.24-8.39.24-.15,0-.29,0-.43,0,.02-1,.06-1.91.08-2.48.05-1.21.08-2.16.07-2.99,0-.86-.07-1.81-.13-2.9-.05-.77-.12-2.02-.16-3.27.31,0,.65,0,1.01,0,2.02,0,4.07.05,5.88.1,1.34.03,2.5.06,3.38.06h6.53s8.74,0,8.74,0h8.74c7.87,0,15.73,0,23.6,0h.12c3.44,0,6.93-.05,10.3-.1,3-.04,6.09-.09,9.09-.09M168.46,214.41c-2.59,0-4.88.08-6.12.08-11.38.02-14.97-.48-14.07,10.38,1.21,14.62.53,27.22.15,41.74-.04,1.46-.08,3.61-.13,5.7-.1,4.44-.19,8.52-.37,12.82-.63,14.61-2.96,21.83-17.63,23.89-14.67-2.06-17-9.28-17.63-23.89-.18-4.3-.27-8.39-.37-12.82-.04-2.1-.09-4.25-.13-5.7-.25-10.36-.71-20.8-.55-31.15.06-4.2,1.38-13.98-.03-17.23-1.37-3.16-5.96-3.78-10.48-3.78-2.68,0-5.34.22-7.28.26-.41,0-.8.01-1.19.01-2.73,0-5.05-.17-6.98-.17-4.83,0-7.2,1.04-7.34,8.31.2,14.78.24,29.55.58,44.32.06,2.42.09,4.03.13,5.59.11,5.04.21,9.68.37,13.39,1.4,32.6,8.36,52.57,46.9,52.57,1.3,0,2.64-.02,4.01-.07,1.37.05,2.71.07,4.01.07,38.54,0,45.5-19.98,46.91-52.57.16-3.72.26-8.36.37-13.39.03-1.56.07-3.17.13-5.59.28-11.79.4-23.44.5-35.23.02-2.88,1.07-13.19-.25-15.11-1.44-2.1-8.13-2.44-13.49-2.44h0ZM197.75,214.51c-3.79,0-7.47.52-8.62,2.79-1.25,2.47-.39,13.58-.37,17.16.16,29.37.33,59.12-.04,88.47-.05,3.67-1.41,12.34,2.18,14.5,1.7,1.02,5.91,1.24,10.18,1.24,3.28,0,6.6-.13,8.84-.13.35,0,.67,0,.96.01,2.29.06,4.26.15,5.93.15,6.1,0,8.29-1.17,8.06-9.29-.33-11.45-.18-22.71-.33-34.14,0-.36-.32-6.84.59-6.84.06,0,.13.03.21.1,1.25,1.1,14.7,29.74,16.65,33.76,1.83,3.78,4.94,11.77,7.8,14.45l.77.51c2.02,1.15,6.58,1.39,11.16,1.39,3.32,0,6.64-.13,9.02-.13.42,0,.82,0,1.17.01,2.31.06,4.32.17,6.03.17,5.5,0,7.99-1.11,7.89-8.41-.28-20.29-.2-40.54-.2-60.83,0-13.5-.39-27.88.17-41.27.46-10.97.28-13.52-10.51-13.52-1.01,0-2.11.02-3.3.06-.42.01-.99.02-1.68.02-1.6,0-3.83-.03-6.21-.03-5.49,0-11.79.14-13.1,1.05-1.26.88-1.39,4.97-1.38,6.29.06,14.08.13,28.14.13,42.23-6.1-12.59-12.57-25.4-18.37-38.06-1.31-2.86-3.67-10.32-7.33-11.23-.65-.16-2.73-.21-5.29-.21-3.98,0-9.14.12-11.92.12-.49,0-.9,0-1.22-.01-1.94-.05-4.94-.36-7.87-.36h0ZM412.71,214.63c-2.39,0-4.81.23-6.56.25-.1,0-.2,0-.3,0-2.18,0-5.83-.23-9.41-.23-4.12,0-8.14.31-9.66,1.63-2.61,2.27-1.51,10.72-1.49,14.09.14,29.4.17,59.02,0,88.42-.03,4.6-1.26,13.69,1.14,17.48,1.85,1.98,4.84,2.41,7.88,2.41,2.08,0,4.18-.2,5.96-.24.21,0,.44,0,.67,0,2.34,0,5.9.19,9.32.19,3.69,0,7.2-.22,8.82-1.13,3.61-2.03,2.14-10.94,2.09-14.59-.32-28.34,0-56.96-.01-85.34,0-3.86.73-17.48-.51-20.1-1.11-2.35-4.48-2.85-7.94-2.85h0ZM302.08,214.7c-6.66,0-9.09,1.28-8.76,10.14.26,7.22.25,14.2.25,21.41v46.04c0,11.53.25,23.45-.17,34.93-.32,8.84.04,11.36,9.24,11.36.7,0,1.45-.01,2.25-.04,1.65-.06,3.26-.08,4.83-.08,3.37,0,6.61.09,9.99.09.63,0,1.25,0,1.89-.01,3.44-.04,6.77-.07,7.76-3.37.67-2.21.1-15.84.09-19.36,0-5.62-.46-12.18-.22-17.59.13-2.91.25-5.12,3.75-5.89.91-.2,3.23-.27,6.11-.27,6.33,0,15.41.34,18.37.41,1.75.04,3.3.09,4.67.09,5.82,0,8.33-.97,8.15-8.09-.12-4.77-.2-8.81-.07-13.6.18-6.81.6-10.07-7.71-10.07-.14,0-.28,0-.42,0-7.01.09-14.2.13-21.19.31-1.43.04-2.78.09-4.02.09-4.65,0-7.82-.8-8.04-6.47-.27-7.04,2.37-8.76,9.16-8.76.53,0,1.08.01,1.66.03,9.12.3,17.97.12,27.04.29,1.68.03,4.21.24,6.77.24,3.84,0,7.76-.47,8.98-2.69,1.35-2.45.57-12.46.66-15.95.1-3.72,1.39-11.33-3.9-12.77-1-.27-3.73-.35-6.89-.35-4.73,0-10.41.18-12.67.18h-.1c-10.1,0-20.5.11-30.82.11-6.82,0-13.6-.05-20.24-.22-2.47-.06-4.6-.16-6.41-.16h0ZM514.85,214.77c-6.67,0-13.5.19-20.23.19-.04,0-.08,0-.11,0-7.94,0-15.87,0-23.81,0-5.17,0-10.34,0-15.5,0-2.77,0-5.54,0-8.3,0-1.83,0-5.6-.16-9.26-.16s-7.39.17-8.72.85c-3.43,1.77-2.04,12.01-2,15.44.03,2.83-.88,12.53,1.13,14.2,1.1.91,5,1.16,9.15,1.16,4.44,0,9.16-.28,11.03-.33,1.01-.03,1.91-.05,2.72-.05,5.65,0,6.7.98,6.68,7.19-.04,9.57-.07,19.14-.1,28.71-.04,13.73.29,28.13-.21,41.78-.42,11.53-1.44,14.89,11.46,14.89.65,0,1.33,0,2.05-.02.38,0,.8-.01,1.24-.01,2.31,0,5.36.1,8.41.1,4.33,0,8.66-.2,10.84-1.15,3.42-1.97,2.1-11.09,2.04-14.55-.32-19.66-.02-39.66-.03-59.37,0-3.44-.89-13.22.86-15.62,1.21-1.66,4.96-2.04,8.63-2.04,2.7,0,5.36.2,6.92.25,1.6.04,3.98.31,6.32.31,3.17,0,6.28-.5,7.31-2.72,1.18-2.54.45-14.12.6-17.88.28-7.18,1.48-11.15-8.13-11.18-.33,0-.66,0-.99,0h0ZM330.73,341.67c-5.32,0-10.6.23-16.63.51-.92.04-1.81.06-2.68.06-1.29,0-2.52-.03-3.67-.03-5.76,0-9.56.71-9.38,9.18.2,9.11.3,17.88.3,26.99,0,26.78.26,53.58-.19,80.36-.11,6.51,1.27,7.27,8.04,7.27.36,0,.74,0,1.14,0,2.82-.03,5.48-.04,8.12-.04,3.21,0,6.39.02,9.83.08.29,0,.58,0,.86,0,9.03,0,8.45-2.71,8.21-10.37-.13-4.19-.73-31.47.46-33.34.36-.57.77-.81,1.21-.81,2.86,0,6.96,10.49,7.44,11.5,4.09,8.54,8.16,16.87,12.12,25.47,3.02,6.56,6.01,7.52,11.67,7.52,1.7,0,3.65-.09,5.91-.14.26,0,.56,0,.91,0,2.17,0,5.96.09,9.54.09,3.94,0,7.63-.11,8.67-.58,3.57-1.6-1.26-8.67-2.36-10.78-5.34-10.22-10.12-20.77-15.39-31.08-4.18-8.18-.47-6.74,6.95-10.7,13.79-7.35,18.94-18.58,18.73-32.32-1.57-26.46-27.3-35.42-53.71-38.05-5.88-.59-11.02-.8-16.12-.8h0ZM339.69,393.07c-1.77,0-3.5-.04-5.13-.1v-22.55c14.73.04,32.63,2.05,32.63,11.59,0,9.13-14.9,11.06-27.49,11.06h0ZM88.5,342.14c-6.66,0-9.09,1.28-8.76,10.14.26,7.22.25,14.2.25,21.41v46.04c0,11.53.25,23.45-.17,34.93h0c-.32,8.84.04,11.36,9.24,11.36.7,0,1.45-.01,2.25-.04,1.65-.06,3.25-.08,4.83-.08,3.37,0,6.61.09,9.99.09.62,0,1.25,0,1.89-.01,3.44-.04,6.77-.07,7.76-3.37.67-2.21.1-15.83.1-19.36,0-5.62-.46-12.18-.22-17.59.13-2.91.25-5.12,3.75-5.89.91-.2,3.23-.27,6.11-.27,6.33,0,15.41.34,18.37.41,1.75.04,3.3.09,4.67.09,5.81,0,8.33-.97,8.15-8.09-.12-4.77-.2-8.81-.07-13.6.18-6.81.6-10.07-7.71-10.07-.14,0-.28,0-.42,0-7.01.09-14.2.13-21.19.31-1.43.04-2.78.09-4.02.09-4.65,0-7.82-.8-8.04-6.47-.27-7.04,2.37-8.76,9.16-8.76.53,0,1.08.01,1.66.03,9.12.3,17.97.12,27.04.29,1.68.03,4.21.24,6.77.24,3.84,0,7.76-.47,8.98-2.69,1.35-2.45.57-12.46.66-15.95.09-3.72,1.39-11.33-3.9-12.77-1-.27-3.73-.35-6.89-.35-4.73,0-10.41.18-12.67.18h-.09c-10.11,0-20.51.11-30.83.11-6.82,0-13.6-.05-20.24-.22-2.47-.06-4.6-.16-6.41-.16h0ZM231.17,342.4c-32.06,0-64.12,17.65-63.25,52.96.61,24.75,2,41.22,13.84,53.44,10.95,11.31,30.18,16.96,49.4,16.96s38.45-5.65,49.4-16.96c11.84-12.22,13.23-28.7,13.84-53.44.87-35.31-31.19-52.96-63.25-52.96h0ZM231.17,436.38c-10.03,0-20.06-1.94-23.82-5.82-4.97-5.13-5.68-17.17-6.14-35.77-.37-15.02,14.8-22.54,29.97-22.54s30.34,7.51,29.97,22.54c-.46,18.6-1.17,30.63-6.14,35.77-3.76,3.88-13.79,5.82-23.82,5.82h0ZM112.1,469.09c-5.73,0-10.88.31-17.12.55-.7.03-1.39.04-2.06.04-1.69,0-3.27-.06-4.7-.06-5.16,0-8.44.81-8.37,8.29.18,18.92.17,37.78.17,56.69,0,14.93.32,30.41-.05,45.28-.26,10.5-2.14,13.55,9.67,13.55.54,0,1.12,0,1.72-.02,1.27-.03,2.52-.04,3.76-.04,4.06,0,7.95.11,12,.11.33,0,.67,0,1,0,3.51-.02,6.71-.1,7.63-3.47.75-2.77.14-17.26.14-21.32s-.7-14.52.49-17.83c1.08-1.75,3.22-1.67,5.37-1.73,26.3-.67,56.36-7.46,59.86-34.41,4.4-33.89-30.81-44.02-62.47-45.46-2.5-.11-4.81-.16-7.04-.16h0ZM121.04,520.5c-1.78,0-3.5-.04-5.14-.1v-22.55c14.73.04,32.62,2.05,32.62,11.59s-14.9,11.06-27.49,11.06h0ZM216.12,469.1c-5.32,0-10.6.23-16.63.51-.92.04-1.81.06-2.68.06-1.29,0-2.52-.03-3.67-.03-5.76,0-9.56.71-9.38,9.18.2,9.11.3,17.88.3,26.99,0,26.78.26,53.58-.19,80.36-.11,6.51,1.27,7.27,8.04,7.27.36,0,.74,0,1.14,0,2.82-.03,5.48-.04,8.12-.04,3.21,0,6.39.02,9.83.08.29,0,.58,0,.86,0,9.03,0,8.45-2.71,8.21-10.37-.13-4.19-.73-31.47.46-33.34.36-.57.77-.81,1.21-.81,2.86,0,6.96,10.49,7.44,11.5,4.09,8.54,8.16,16.87,12.12,25.47,3.02,6.56,6.01,7.52,11.67,7.52,1.7,0,3.65-.09,5.91-.14.26,0,.56,0,.91,0,2.17,0,5.96.09,9.54.09,3.94,0,7.63-.11,8.67-.58,3.57-1.6-1.26-8.67-2.36-10.78-5.34-10.22-10.12-20.77-15.39-31.08-4.18-8.18-.47-6.74,6.95-10.7,13.79-7.35,18.94-18.58,18.73-32.32-1.57-26.46-27.3-35.42-53.71-38.05-5.88-.59-11.02-.8-16.12-.8h0ZM225.08,520.5c-1.77,0-3.5-.04-5.14-.1v-22.55c14.73.04,32.62,2.05,32.62,11.59,0,9.13-14.9,11.06-27.49,11.06h0ZM341.84,469.38c-3.79,0-7.47.52-8.62,2.79-1.25,2.47-.39,13.58-.37,17.16.16,29.37.33,59.12-.04,88.47-.05,3.67-1.41,12.34,2.18,14.5,1.7,1.02,5.91,1.24,10.18,1.24,3.28,0,6.6-.13,8.83-.13.35,0,.67,0,.96.01,2.29.06,4.26.15,5.93.15,6.11,0,8.29-1.17,8.06-9.29-.33-11.45-.18-22.71-.33-34.14,0-.36-.32-6.84.59-6.84.06,0,.13.03.21.1,1.25,1.1,14.7,29.74,16.65,33.76,1.83,3.78,4.94,11.77,7.8,14.45l.77.51c2.02,1.15,6.58,1.39,11.16,1.39,3.32,0,6.65-.13,9.02-.13.42,0,.82,0,1.17.01,2.31.06,4.32.17,6.03.17,5.5,0,7.99-1.11,7.89-8.41-.28-20.29-.2-40.54-.2-60.83,0-13.5-.39-27.88.17-41.27.46-10.97.28-13.52-10.5-13.52-1.01,0-2.11.02-3.31.06-.42.01-.99.02-1.67.02-1.6,0-3.84-.03-6.22-.03-5.48,0-11.78.14-13.09,1.05-1.26.88-1.39,4.98-1.38,6.29.06,14.08.13,28.14.13,42.23-6.1-12.59-12.57-25.4-18.37-38.06-1.31-2.86-3.67-10.32-7.33-11.23-.65-.16-2.73-.21-5.29-.21-3.99,0-9.15.12-11.92.12-.49,0-.9,0-1.22-.01-1.94-.05-4.94-.36-7.87-.36h0ZM316.39,469.5c-2.39,0-4.81.24-6.56.26-.1,0-.2,0-.3,0-2.17,0-5.84-.23-9.42-.23-4.12,0-8.14.31-9.66,1.63-2.61,2.27-1.51,10.72-1.49,14.09.14,29.4.17,59.02,0,88.42-.03,4.6-1.26,13.69,1.14,17.48,1.85,1.98,4.84,2.41,7.88,2.41,2.08,0,4.18-.2,5.96-.24.21,0,.44,0,.67,0,2.34,0,5.9.19,9.32.19,3.69,0,7.2-.22,8.82-1.13,3.61-2.03,2.14-10.94,2.09-14.59-.32-28.34,0-56.96-.01-85.34,0-3.86.73-17.48-.51-20.11-1.11-2.35-4.48-2.85-7.94-2.85h0ZM523.38,469.64c-6.67,0-13.49.19-20.22.19h-.12c-7.87,0-15.74,0-23.6,0-5.83,0-11.65,0-17.48,0-2.18,0-4.35,0-6.53,0-1.83,0-5.6-.16-9.26-.16s-7.39.17-8.71.85c-3.43,1.77-2.04,12.01-2,15.44.03,2.83-.88,12.53,1.13,14.2,1.1.91,5,1.16,9.14,1.16,4.44,0,9.17-.28,11.03-.33,1.01-.03,1.91-.05,2.72-.05,5.65,0,6.7.98,6.68,7.19-.04,9.57-.07,19.14-.1,28.71-.04,13.73.29,28.13-.21,41.78-.42,11.53-1.44,14.9,11.46,14.9.65,0,1.33,0,2.05-.02.38,0,.8-.01,1.24-.01,2.31,0,5.36.1,8.41.1,4.33,0,8.66-.2,10.84-1.15,3.42-1.97,2.1-11.09,2.04-14.55-.32-19.66-.02-39.66-.03-59.37,0-3.44-.89-13.22.86-15.62,1.21-1.66,4.96-2.04,8.63-2.04,2.7,0,5.36.2,6.92.25,1.6.04,3.98.31,6.32.31,3.17,0,6.28-.5,7.31-2.72,1.18-2.54.45-14.12.6-17.88.28-7.18,1.48-11.15-8.13-11.18-.33,0-.66,0-.99,0h0Z" style="fill:#f3f3f4;"/></g></svg>