<?xml version="1.0" encoding="UTF-8"?>
<svg id="Layer_1" xmlns="http://www.w3.org/2000/svg" version="1.1" viewBox="0 0 228.17 124.76">
  <!-- Generator: Adobe Illustrator 29.5.0, SVG Export Plug-In . SVG Version: 2.1.0 Build 137)  -->
  <defs>
    <style>
      .st0, .st1 {
        fill: #fff;
        stroke: #231f20;
        stroke-miterlimit: 10;
      }

      .st1 {
        stroke-width: 10px;
      }
    </style>
  </defs>
  <path class="st1" d="M172.99,15.49c-7.08-1.59-12.4-2.15-19.37-3.11-2.28-.31-4.31-.82-6.07-1.09-.62-1.86-1.72-3.38-3.81-3.6-2.09-.22-12.68,1.94-15.7,2.44-13.47,2.22-27.56,4.8-41.01,6.67-3.16.44-5.63.7-7.45,1.2-2.84.25-4.04,2.03-4.53,7.31-1.1,11.87-3.43,21.85-5.79,33.4-.24,1.16-.57,2.87-.91,4.55-.71,3.54-1.35,6.79-2.11,10.2-2.57,11.6-5.45,17.03-17.48,16.62-11.44-3.73-12.29-9.83-10.72-21.6.46-3.46.97-6.75,1.52-10.3.26-1.69.52-3.41.71-4.58,1.27-8.32,2.38-16.74,3.97-24.99.65-3.36,3.09-10.98,2.41-13.78-1.04-4.34-9.52-4.67-13.71-5.33-8.31-1.31-11.91-4.12-13.57,4.33-1.94,11.85-3.99,23.67-5.81,35.53-.3,1.94-.5,3.24-.69,4.49-.63,4.04-1.2,7.77-1.6,10.76-3.61,27.15-.56,44.37,33.29,49.2,25.62,5.42,36.77-2.18,43.24-18.05.72,4.39,1.41,8.78,1.96,13.12.98,7.66,1.63,9.37,10.71,7.56,4.66-.93,8.85-1.4,13.39-2.2,2.75-.49,5.41-.95,5.78-3.73.24-1.86-2.01-12.71-2.48-15.52-.74-4.5-1.97-9.69-2.5-14.07-.28-2.35-.48-4.14,2.23-5.21,1.51-.6,8.31-1.59,13.66-2.32-1.43,8.4-2.87,16.87-4.53,25.06-1.77,8.74-3.8,10.71,7.19,12.43,4.67.72,8.87,1.65,13.39,2.43,2.81.49,5.39.87,6.59-1.7.99-2.11,2.55-13.78,3.13-17.03.59-3.34,1.5-11.71,2.91-14.19,1.12-1.24,2.81-.89,4.54-.62,21.13,3.18,46.14,2.01,52.74-19.05,8.31-26.48-18.41-39.57-43.53-45.2h0ZM108.59,46.1c-1.23-6.04,1.06-7.58,7.52-8.43,7.19-.94,14.11-2.22,21.24-3.27-.71,4.11-1.43,8.21-2.15,12.32-5.35.94-10.8,1.89-16.1,2.9-5.4,1.03-9.34,2.2-10.51-3.52ZM190.81,51.8c-1.48,8.33-17.14,6.43-27.64,4.15l3.19-18.04c11.77,2.12,25.81,6.25,24.45,13.89Z"/>
  <path class="st0" d="M156.33,94.56c-.57,3.25-2.14,14.93-3.13,17.03-1.21,2.56-3.77,2.17-6.59,1.7-4.54-.78-8.73-1.71-13.39-2.43-11-1.72-8.96-3.69-7.19-12.43,2.4-11.84,4.33-24.26,6.44-36.21,2.68-15.13,5.36-30.21,7.89-45.37,1.39-8.31,6.11-5.45,13.27-4.47,6.97.95,12.29,1.52,19.37,3.11,25.12,5.63,51.84,18.72,43.53,45.2-6.61,21.06-31.61,22.23-52.74,19.05-1.73-.26-3.42-.62-4.54.62-1.42,2.49-2.33,10.86-2.91,14.19h-.02ZM163.16,55.95c10.51,2.27,26.17,4.18,27.64-4.15,1.35-7.64-12.68-11.77-24.45-13.89,0,0-3.19,18.04-3.19,18.04Z"/>
  <path class="st0" d="M85.29,80.84l-6.08-36.89c-.95-5.78-1.86-11.37-3.02-17.13-1.82-8.98,1.55-8.71,10.84-10,13.45-1.87,27.54-4.45,41.01-6.67,3.01-.5,13.61-2.66,15.7-2.44,4.43.46,4.39,6.73,4.81,9.72.39,2.81,2.34,10.72,1.57,12.87-1.15,3.24-8.93,3.56-12.3,4.04-7.29,1.06-14.36,2.37-21.72,3.34-6.46.85-8.75,2.38-7.52,8.43,1.16,5.72,5.11,4.56,10.51,3.52,5.58-1.07,11.33-2.05,16.94-3.05,7-1.24,7.08,1.43,7.85,7,.53,3.85,1.12,7.08,1.85,10.89,1.34,7.02-1.86,7.06-9.22,8.09-3.46.49-17.41,2.22-19.64,3.13-2.7,1.09-2.51,2.87-2.23,5.21.52,4.37,1.75,9.57,2.5,14.07.47,2.82,2.73,13.66,2.48,15.52-.36,2.77-3.02,3.24-5.78,3.73-4.55.8-8.73,1.27-13.39,2.2-9.08,1.81-9.72.11-10.71-7.56-1.18-9.26-2.96-18.78-4.47-28.02h.02Z"/>
  <path class="st0" d="M44.56,113.8c-33.85-4.83-36.9-22.04-33.29-49.2.4-2.99.97-6.72,1.6-10.76.19-1.25.39-2.55.69-4.49,1.81-11.86,3.87-23.69,5.81-35.53,1.66-8.45,5.25-5.63,13.57-4.33,4.19.66,12.67,1,13.71,5.33.67,2.8-1.77,10.43-2.41,13.78-1.59,8.26-2.7,16.67-3.97,24.99-.18,1.17-.45,2.9-.71,4.58-.55,3.57-1.06,6.84-1.52,10.3-1.56,11.77-.72,17.87,10.72,21.6,12.03.43,14.91-5.01,17.48-16.62.75-3.41,1.4-6.67,2.11-10.2.33-1.67.68-3.38.91-4.55,2.35-11.56,4.69-21.54,5.79-33.4.82-8.82,3.61-7.9,12.73-6.31,3.06.53,14.08,1.87,15.36,4.66.78,1.72-1.52,9.82-1.94,12.12-1.75,9.41-3.5,18.71-5.39,28.1-.39,1.93-.65,3.21-.9,4.45-.8,4.01-1.53,7.71-2.19,10.66-5.93,26.74-14.7,41.86-48.15,34.78v.02Z"/>
</svg>